<svg width="80" height="80" viewBox="0 0 80 80" fill="none" xmlns="http://www.w3.org/2000/svg">
<g clip-path="url(#clip0_74_3)">
<path d="M40 80C62.0916 80 80 62.0915 80 40C80 17.9085 62.0916 0 40 0C17.9084 0 0 17.9085 0 40C0 62.0915 17.9084 80 40 80Z" fill="#1F1919"/>
<g filter="url(#filter0_d_74_3)">
<path d="M78 37.2662C76.5952 17.5554 60.1188 2 40 2C19.8812 2 3.40479 17.5554 2 37.2662H21.8398C23.163 28.447 30.7897 21.6834 40 21.6834C49.2103 21.6834 56.837 28.447 58.1602 37.2662H78Z" fill="#FF0000"/>
</g>
<g filter="url(#filter1_d_74_3)">
<path d="M2.02045 43.0072H21.8829C23.3211 51.6924 30.885 58.3166 40 58.3166C49.1149 58.3166 56.6788 51.6924 58.117 43.0072H77.9796C76.4426 62.5883 60.0257 78 40 78C19.9743 78 3.55734 62.5883 2.02045 43.0072Z" fill="white"/>
</g>
<path d="M40 52.3021C46.8117 52.3021 52.3336 46.7943 52.3336 40C52.3336 33.2057 46.8117 27.6979 40 27.6979C33.1883 27.6979 27.6664 33.2057 27.6664 40C27.6664 46.7943 33.1883 52.3021 40 52.3021Z" fill="white"/>
</g>
<defs>
<filter id="filter0_d_74_3" x="-1.8" y="2" width="83.6" height="42.8662" filterUnits="userSpaceOnUse" color-interpolation-filters="sRGB">
<feFlood flood-opacity="0" result="BackgroundImageFix"/>
<feColorMatrix in="SourceAlpha" type="matrix" values="0 0 0 0 0 0 0 0 0 0 0 0 0 0 0 0 0 0 127 0" result="hardAlpha"/>
<feOffset dy="3.8"/>
<feGaussianBlur stdDeviation="1.9"/>
<feComposite in2="hardAlpha" operator="out"/>
<feColorMatrix type="matrix" values="0 0 0 0 0 0 0 0 0 0 0 0 0 0 0 0 0 0 0.25 0"/>
<feBlend mode="normal" in2="BackgroundImageFix" result="effect1_dropShadow_74_3"/>
<feBlend mode="normal" in="SourceGraphic" in2="effect1_dropShadow_74_3" result="shape"/>
</filter>
<filter id="filter1_d_74_3" x="-1.77955" y="43.0072" width="83.5591" height="42.5928" filterUnits="userSpaceOnUse" color-interpolation-filters="sRGB">
<feFlood flood-opacity="0" result="BackgroundImageFix"/>
<feColorMatrix in="SourceAlpha" type="matrix" values="0 0 0 0 0 0 0 0 0 0 0 0 0 0 0 0 0 0 127 0" result="hardAlpha"/>
<feOffset dy="3.8"/>
<feGaussianBlur stdDeviation="1.9"/>
<feComposite in2="hardAlpha" operator="out"/>
<feColorMatrix type="matrix" values="0 0 0 0 0 0 0 0 0 0 0 0 0 0 0 0 0 0 0.25 0"/>
<feBlend mode="normal" in2="BackgroundImageFix" result="effect1_dropShadow_74_3"/>
<feBlend mode="normal" in="SourceGraphic" in2="effect1_dropShadow_74_3" result="shape"/>
</filter>
<clipPath id="clip0_74_3">
<rect width="80" height="80" fill="white"/>
</clipPath>
</defs>
</svg>
