<svg width="19" height="19" viewBox="0 0 19 19" fill="none" xmlns="http://www.w3.org/2000/svg">
<path d="M17.6771 15.6946L13.4461 11.4635C14.037 10.4941 14.35 9.38078 14.3509 8.24541C14.3509 4.80522 11.5651 2.01935 8.12725 2.01816C4.68944 2.01816 1.90237 4.80463 1.90237 8.24363C1.90237 11.6814 4.68884 14.4661 8.12725 14.4661C9.30703 14.4661 10.4072 14.1324 11.3466 13.5624L15.5788 17.7941L17.6771 15.694V15.6946ZM4.27619 8.24422C4.27776 7.22344 4.68392 6.24491 5.40566 5.52305C6.12741 4.80119 7.10588 4.39489 8.12666 4.39316C9.14737 4.39457 10.1259 4.80072 10.8476 5.52253C11.5693 6.24435 11.9753 7.22291 11.9765 8.24363C11.975 9.26409 11.5689 10.2423 10.8474 10.964C10.1259 11.6856 9.14771 12.0918 8.12725 12.0935C7.10667 12.0916 6.12845 11.6853 5.40685 10.9636C4.68525 10.2419 4.2791 9.26361 4.27737 8.24303L4.27619 8.24422Z" fill="#FF0010"/>
</svg>
